<svg width="137" height="22" viewBox="0 0 137 22" fill="none" xmlns="http://www.w3.org/2000/svg">
<path d="M0.15625 13.5199V10.5199L12.1562 5.23579V8.6875L3.94034 11.9858L4.05114 11.8068V12.233L3.94034 12.054L12.1562 15.3523V18.804L0.15625 13.5199ZM23.3636 0.727272L17.7386 21.625H14.6108L20.2358 0.727272H23.3636ZM136.211 13.5199L124.211 18.804V15.3523L132.427 12.054L132.316 12.233V11.8068L132.427 11.9858L124.211 8.6875V5.23579L136.211 10.5199V13.5199Z" fill="#06B6D4"/>
<path d="M28.7436 1.54545V19H25.1129V1.54545H28.7436ZM40.0469 13.4261V5.90909H43.6776V19H40.1918V16.6222H40.0554C39.7599 17.3892 39.2685 18.0057 38.581 18.4716C37.8991 18.9375 37.0668 19.1705 36.0838 19.1705C35.2088 19.1705 34.4389 18.9716 33.7741 18.5739C33.1094 18.1761 32.5895 17.6108 32.2145 16.8778C31.8452 16.1449 31.6577 15.267 31.652 14.2443V5.90909H35.2827V13.5966C35.2884 14.3693 35.4957 14.9801 35.9048 15.429C36.3139 15.8778 36.8622 16.1023 37.5497 16.1023C37.9872 16.1023 38.3963 16.0028 38.777 15.804C39.1577 15.5994 39.4645 15.2983 39.6974 14.9006C39.9361 14.5028 40.0526 14.0114 40.0469 13.4261ZM50.3146 19.2472C49.4794 19.2472 48.7351 19.1023 48.0817 18.8125C47.4283 18.517 46.9112 18.0824 46.5305 17.5085C46.1555 16.929 45.968 16.2074 45.968 15.3438C45.968 14.6165 46.1016 14.0057 46.3686 13.5114C46.6357 13.017 46.9993 12.6193 47.4595 12.3182C47.9197 12.017 48.4425 11.7898 49.0277 11.6364C49.6186 11.483 50.2379 11.375 50.8857 11.3125C51.647 11.233 52.2607 11.1591 52.7266 11.0909C53.1925 11.017 53.5305 10.9091 53.7408 10.767C53.951 10.625 54.0561 10.4148 54.0561 10.1364V10.0852C54.0561 9.54545 53.8857 9.12784 53.5447 8.83239C53.2095 8.53693 52.7322 8.3892 52.1129 8.3892C51.4595 8.3892 50.9396 8.53409 50.5533 8.82386C50.1669 9.10795 49.9112 9.46591 49.7862 9.89773L46.4283 9.625C46.5987 8.82955 46.9339 8.14205 47.4339 7.5625C47.9339 6.97727 48.5788 6.52841 49.3686 6.21591C50.1641 5.89773 51.0845 5.73864 52.13 5.73864C52.8572 5.73864 53.5533 5.82386 54.218 5.99432C54.8885 6.16477 55.4822 6.42898 55.9993 6.78693C56.522 7.14489 56.9339 7.60511 57.2351 8.16761C57.5362 8.72443 57.6868 9.39205 57.6868 10.1705V19H54.2436V17.1847H54.1413C53.9311 17.5938 53.6499 17.9545 53.2976 18.267C52.9453 18.5739 52.522 18.8153 52.0277 18.9915C51.5334 19.1619 50.9624 19.2472 50.3146 19.2472ZM51.3544 16.7415C51.8885 16.7415 52.3601 16.6364 52.7692 16.4261C53.1783 16.2102 53.4993 15.9205 53.7322 15.5568C53.9652 15.1932 54.0817 14.7812 54.0817 14.321V12.9318C53.968 13.0057 53.8118 13.0739 53.6129 13.1364C53.4197 13.1932 53.201 13.2472 52.9567 13.2983C52.7124 13.3437 52.468 13.3864 52.2237 13.4261C51.9794 13.4602 51.7578 13.4915 51.5589 13.5199C51.1328 13.5824 50.7607 13.6818 50.4425 13.8182C50.1243 13.9545 49.8771 14.1392 49.701 14.3722C49.5249 14.5994 49.4368 14.8835 49.4368 15.2244C49.4368 15.7188 49.6158 16.0966 49.9737 16.358C50.3374 16.6136 50.7976 16.7415 51.3544 16.7415ZM64.1342 11.4318V19H60.5036V5.90909H63.9638V8.21875H64.1172C64.407 7.45739 64.8928 6.85511 65.5746 6.41193C66.2564 5.96307 67.0831 5.73864 68.0547 5.73864C68.9638 5.73864 69.7564 5.9375 70.4325 6.33523C71.1087 6.73295 71.6342 7.30114 72.0092 8.03977C72.3842 8.77273 72.5717 9.64773 72.5717 10.6648V19H68.9411V11.3125C68.9467 10.5114 68.7422 9.88636 68.3274 9.4375C67.9126 8.98295 67.3416 8.75568 66.6143 8.75568C66.1257 8.75568 65.6939 8.8608 65.3189 9.07102C64.9496 9.28125 64.6598 9.58807 64.4496 9.99148C64.245 10.3892 64.1399 10.8693 64.1342 11.4318ZM82.473 5.90909V8.63636H74.3935V5.90909H82.473ZM76.2429 19V4.96307C76.2429 4.0142 76.4276 3.22727 76.7969 2.60227C77.1719 1.97727 77.6832 1.50852 78.331 1.19602C78.9787 0.883522 79.7145 0.727272 80.5384 0.727272C81.0952 0.727272 81.6037 0.769886 82.0639 0.855114C82.5298 0.940341 82.8764 1.01705 83.1037 1.08523L82.456 3.8125C82.3139 3.76705 82.1378 3.72443 81.9276 3.68466C81.723 3.64489 81.5128 3.625 81.2969 3.625C80.7628 3.625 80.3906 3.75 80.1804 4C79.9702 4.24432 79.8651 4.58807 79.8651 5.03125V19H76.2429ZM84.6911 19V5.90909H88.2109V8.19318H88.3473C88.5859 7.38068 88.9865 6.76705 89.549 6.35227C90.1115 5.93182 90.7592 5.72159 91.4922 5.72159C91.674 5.72159 91.87 5.73295 92.0803 5.75568C92.2905 5.77841 92.4751 5.80966 92.6342 5.84943V9.07102C92.4638 9.01989 92.228 8.97443 91.9268 8.93466C91.6257 8.89489 91.3501 8.875 91.1001 8.875C90.5661 8.875 90.0888 8.99148 89.6683 9.22443C89.2536 9.4517 88.924 9.76989 88.6797 10.179C88.4411 10.5881 88.3217 11.0597 88.3217 11.5938V19H84.6911ZM99.8679 19.2557C98.5213 19.2557 97.3622 18.983 96.3906 18.4375C95.4247 17.8864 94.6804 17.108 94.1577 16.1023C93.6349 15.0909 93.3736 13.8949 93.3736 12.5142C93.3736 11.1676 93.6349 9.9858 94.1577 8.96875C94.6804 7.9517 95.4162 7.15909 96.3651 6.59091C97.3196 6.02273 98.4389 5.73864 99.723 5.73864C100.587 5.73864 101.391 5.87784 102.135 6.15625C102.885 6.42898 103.538 6.84091 104.095 7.39205C104.658 7.94318 105.095 8.63636 105.408 9.47159C105.72 10.3011 105.876 11.2727 105.876 12.3864V13.3835H94.8224V11.1335H102.459C102.459 10.6108 102.345 10.1477 102.118 9.74432C101.891 9.34091 101.575 9.02557 101.172 8.7983C100.774 8.56534 100.311 8.44886 99.7827 8.44886C99.2315 8.44886 98.7429 8.5767 98.3168 8.83239C97.8963 9.08239 97.5668 9.42045 97.3281 9.84659C97.0895 10.267 96.9673 10.7358 96.9616 11.2528V13.392C96.9616 14.0398 97.081 14.5994 97.3196 15.071C97.5639 15.5426 97.9077 15.9062 98.3509 16.1619C98.794 16.4176 99.3196 16.5455 99.9276 16.5455C100.331 16.5455 100.7 16.4886 101.036 16.375C101.371 16.2614 101.658 16.0909 101.896 15.8636C102.135 15.6364 102.317 15.358 102.442 15.0284L105.8 15.25C105.629 16.0568 105.28 16.7614 104.751 17.3636C104.229 17.9602 103.553 18.4261 102.723 18.7614C101.899 19.0909 100.947 19.2557 99.8679 19.2557ZM113.07 19.2131C112.075 19.2131 111.175 18.9574 110.368 18.446C109.567 17.929 108.93 17.1705 108.459 16.1705C107.993 15.1648 107.76 13.9318 107.76 12.4716C107.76 10.9716 108.001 9.72443 108.484 8.73011C108.967 7.73011 109.609 6.98295 110.411 6.48864C111.217 5.98864 112.101 5.73864 113.061 5.73864C113.794 5.73864 114.405 5.86364 114.893 6.11364C115.388 6.35795 115.786 6.66477 116.087 7.03409C116.393 7.39773 116.626 7.75568 116.786 8.10795H116.896V1.54545H120.518V19H116.939V16.9034H116.786C116.615 17.267 116.374 17.6278 116.061 17.9858C115.754 18.3381 115.354 18.6307 114.859 18.8636C114.371 19.0966 113.774 19.2131 113.07 19.2131ZM114.22 16.3239C114.805 16.3239 115.3 16.1648 115.703 15.8466C116.112 15.5227 116.425 15.071 116.641 14.4915C116.862 13.9119 116.973 13.233 116.973 12.4545C116.973 11.6761 116.865 11 116.649 10.4261C116.433 9.85227 116.121 9.40909 115.712 9.09659C115.303 8.78409 114.805 8.62784 114.22 8.62784C113.624 8.62784 113.121 8.78977 112.712 9.11364C112.303 9.4375 111.993 9.88636 111.783 10.4602C111.572 11.0341 111.467 11.6989 111.467 12.4545C111.467 13.2159 111.572 13.8892 111.783 14.4744C111.999 15.054 112.308 15.5085 112.712 15.8381C113.121 16.1619 113.624 16.3239 114.22 16.3239Z" fill="white"/>
</svg>
